<?xml version="1.0" encoding="UTF-8"?><svg version="1.1" width="1032px" height="248px" viewBox="0 0 1032.0 248.0" xmlns="http://www.w3.org/2000/svg" xmlns:xlink="http://www.w3.org/1999/xlink"><defs><clipPath id="i0"><path d="M1206,0 L1206,512 L0,512 L0,0 L1206,0 Z"></path></clipPath><clipPath id="i1"><path d="M108.249511,0 L177.541495,65.7359305 L266.507269,2.25588683 L333,24.7612247 L308.021839,189.512739 L245.158879,242.846934 L212.568909,248 L137.085945,178.109932 L61.6603887,247.686623 L33.8672662,231.263771 L61.6603887,73.7022465 L47.8631444,59.2125552 L19.952704,223.045972 L0,211.254533 L31.9106979,43.2436217 L108.249511,0 Z M106.005955,17.4645592 L55.7923443,45.9841014 L245.158879,223.773625 L286.855812,189.512739 L106.005955,17.4645592 Z M259.4763,36.7297126 L200.33249,82.0425101 L245.158879,122.847689 L259.4763,36.7297126 Z"></path></clipPath><clipPath id="i2"><path d="M278.510779,0 C280.765927,0 282.812265,0.0624580255 284.649793,0.187374077 C286.487321,0.312290128 288.993041,0.499664204 292.166953,0.749496306 L292.166953,29.7300201 C290.162377,29.480188 286.800536,29.292814 282.08143,29.1678979 C277.362324,29.0429819 274.104888,30.083949 272.309122,32.2907992 C270.513356,34.4976494 269.615473,36.9335124 269.615473,39.5983882 L269.615473,51.0906649 L293.043955,51.0906649 L293.043955,76.1987911 L269.615473,76.1987911 L269.615473,186 L234.034249,186 L234.034249,76.1987911 L214.113775,76.1987911 L214.113775,51.0906649 L233.658391,51.0906649 L233.658391,42.3465413 C233.658391,27.773002 236.122349,17.7380792 241.050265,12.241773 C246.228753,4.080591 258.715591,0 278.510779,0 Z M511.282145,20.9908932 L581.522488,186 L543.034629,186 L490.113822,60.804137 L447.777177,160.337246 L495.165354,160.337246 L507.19281,186 L398.464607,186 L468.70495,20.9908932 L511.282145,20.9908932 Z M38.3375161,1.87374077 L38.3375161,186 L0,186 L0,1.87374077 L38.3375161,1.87374077 Z M147.085765,46.593687 C161.201321,46.593687 172.748514,50.2787105 181.727344,57.6487576 C190.706174,65.0188046 195.195589,77.2397582 195.195589,94.3116185 L195.195589,186 L158.612077,186 L158.612077,103.180658 C158.612077,96.0188046 157.651551,90.5224983 155.730499,86.6917394 C152.222491,79.6964406 145.54057,76.1987911 135.684738,76.1987911 C123.573758,76.1987911 115.26312,81.3203492 110.752824,91.5634654 C108.414152,96.9764943 107.244816,103.888516 107.244816,112.29953 L107.244816,186 L71.6635922,186 L71.6635922,50.0913365 L106.117242,50.0913365 L106.117242,69.9529886 C110.711062,62.9576897 115.05431,57.919409 119.146986,54.8381464 C126.497098,49.3418402 135.810024,46.593687 147.085765,46.593687 Z M387.760171,46.593687 C388.428363,46.593687 388.99215,46.6145064 389.451532,46.6561451 C389.910914,46.6977837 390.934083,46.7602418 392.521039,46.8435191 L392.521039,83.319006 C390.265891,83.0691739 388.261315,82.9026192 386.507311,82.8193418 C384.753307,82.7360645 383.333399,82.6944258 382.247587,82.6944258 C367.881459,82.6944258 358.234437,87.3579584 353.306521,96.6850235 C350.550229,101.931498 349.172083,110.009402 349.172083,120.918737 L349.172083,186 L313.215001,186 L313.215001,49.8415044 L347.292793,49.8415044 L347.292793,73.5755541 C352.805377,64.498321 357.608007,58.2941572 361.700683,54.9630625 C368.382603,49.3834788 377.069099,46.593687 387.760171,46.593687 Z M633,20.7510544 L633,186 L594.512141,186 L594.512141,20.7510544 L633,20.7510544 Z"></path></clipPath></defs><g transform="translate(-87.0 -132.0)"><g clip-path="url(#i0)"><g transform="translate(87.0 132.0)"><g clip-path="url(#i1)"><polygon points="0,0 333,0 333,248 0,248 0,0" stroke="none" fill="#FFFFFF"></polygon></g><g transform="translate(399.0 33.0)"><g clip-path="url(#i2)"><polygon points="0,0 633,0 633,186 0,186 0,0" stroke="none" fill="#FFFFFF"></polygon></g></g></g></g></g></svg>